<svg xmlns="http://www.w3.org/2000/svg" viewBox="0 0 128 128" width="128" height="128" role="img" aria-label="Filled Map">
<defs><linearGradient id="bg" x1="0" y1="0" x2="0" y2="1"><stop offset="0" stop-color="#F7FCFF"/><stop offset="1" stop-color="#EAF6FB"/></linearGradient><filter id="shadow" x="-20%" y="-20%" width="140%" height="140%"><feDropShadow dx="0" dy="2" stdDeviation="2" flood-color="#163B4A" flood-opacity="0.24"/></filter></defs>
<rect x="8" y="8" width="112" height="112" rx="16" fill="url(#bg)" stroke="#76AFC5" stroke-width="2" filter="url(#shadow)"/>
<circle cx="24" cy="24" r="10" fill="#1A4F63"/><circle cx="24" cy="24" r="7" fill="#147EA6" opacity=".9"/>
<path d="M36 48 L58 34 L82 42 L104 34 L104 86 L82 98 L58 88 L36 98 Z" fill="white" stroke="#1A4F63" stroke-width="2"/><path d="M38 52 L58 40 L58 86 L38 94 Z" fill="#147EA6" opacity=".75"/><path d="M60 38 L82 46 L82 94 L60 84 Z" fill="#F2C811" opacity=".8"/><path d="M84 46 L102 38 L102 84 L84 94 Z" fill="#F28E2B" opacity=".8"/>
</svg>