<svg xmlns="http://www.w3.org/2000/svg" viewBox="0 0 128 128" width="128" height="128" role="img" aria-label="Ribbon Chart">
<defs><linearGradient id="bg" x1="0" y1="0" x2="0" y2="1"><stop offset="0" stop-color="#F7FCFF"/><stop offset="1" stop-color="#EAF6FB"/></linearGradient><filter id="shadow" x="-20%" y="-20%" width="140%" height="140%"><feDropShadow dx="0" dy="2" stdDeviation="2" flood-color="#163B4A" flood-opacity="0.24"/></filter></defs>
<rect x="8" y="8" width="112" height="112" rx="16" fill="url(#bg)" stroke="#76AFC5" stroke-width="2" filter="url(#shadow)"/>
<circle cx="24" cy="24" r="10" fill="#1A4F63"/><circle cx="24" cy="24" r="7" fill="#147EA6" opacity=".9"/>
<path d="M32 92 H104 M32 92 V34" fill="none" stroke="#1A4F63" stroke-width="3" stroke-linecap="round" opacity=".75"/><path d="M36 48 C52 36 68 62 84 48 C96 38 100 34 110 32 L110 46 C96 50 88 62 74 70 C60 78 48 54 36 64 Z" fill="#F2C811" opacity=".9"/><path d="M36 70 C52 78 62 44 80 58 C94 68 100 76 110 74 L110 88 C96 92 88 80 74 72 C58 62 50 92 36 86 Z" fill="#147EA6" opacity=".82"/>
</svg>