<svg xmlns="http://www.w3.org/2000/svg" viewBox="0 0 128 128" width="128" height="128" role="img" aria-label="Small Multiples">
<defs><linearGradient id="bg" x1="0" y1="0" x2="0" y2="1"><stop offset="0" stop-color="#F7FCFF"/><stop offset="1" stop-color="#EAF6FB"/></linearGradient><filter id="shadow" x="-20%" y="-20%" width="140%" height="140%"><feDropShadow dx="0" dy="2" stdDeviation="2" flood-color="#163B4A" flood-opacity="0.24"/></filter></defs>
<rect x="8" y="8" width="112" height="112" rx="16" fill="url(#bg)" stroke="#76AFC5" stroke-width="2" filter="url(#shadow)"/>
<circle cx="24" cy="24" r="10" fill="#1A4F63"/><circle cx="24" cy="24" r="7" fill="#147EA6" opacity=".9"/>
<rect x="32" y="36" width="32" height="26" rx="4" fill="white" stroke="#76AFC5"/><rect x="74" y="36" width="32" height="26" rx="4" fill="white" stroke="#76AFC5"/><rect x="32" y="72" width="32" height="26" rx="4" fill="white" stroke="#76AFC5"/><rect x="74" y="72" width="32" height="26" rx="4" fill="white" stroke="#76AFC5"/><path d="M38 54 L48 46 L58 52 M80 54 L90 44 L100 50 M38 90 L48 82 L58 86 M80 90 L90 80 L100 84" stroke="#147EA6" stroke-width="2" fill="none"/>
</svg>