<svg xmlns="http://www.w3.org/2000/svg" viewBox="0 0 128 128" width="128" height="128" role="img" aria-label="Stacked Area Chart">
<defs><linearGradient id="bg" x1="0" y1="0" x2="0" y2="1"><stop offset="0" stop-color="#F7FCFF"/><stop offset="1" stop-color="#EAF6FB"/></linearGradient><filter id="shadow" x="-20%" y="-20%" width="140%" height="140%"><feDropShadow dx="0" dy="2" stdDeviation="2" flood-color="#163B4A" flood-opacity="0.24"/></filter></defs>
<rect x="8" y="8" width="112" height="112" rx="16" fill="url(#bg)" stroke="#76AFC5" stroke-width="2" filter="url(#shadow)"/>
<circle cx="24" cy="24" r="10" fill="#1A4F63"/><circle cx="24" cy="24" r="7" fill="#147EA6" opacity=".9"/>
<path d="M32 92 H104 M32 92 V34" fill="none" stroke="#1A4F63" stroke-width="3" stroke-linecap="round" opacity=".75"/><path d="M34 88 L34 74 C48 70 56 58 68 62 C82 66 90 42 108 34 L108 92 L34 92 Z" fill="#147EA6" opacity=".75"/><path d="M34 74 C50 62 62 54 76 58 C90 62 96 40 108 30 L108 54 C92 62 82 76 66 72 C54 69 48 82 34 84 Z" fill="#F2C811" opacity=".85"/><path d="M34 58 C50 50 62 44 78 48 C92 52 100 34 108 26 L108 42 C96 52 88 60 76 58 C62 56 52 66 34 72 Z" fill="#F28E2B" opacity=".85"/>
</svg>